<?xml version="1.0" standalone="no"?>
<!DOCTYPE svg PUBLIC "-//W3C//DTD SVG 20010904//EN"
 "http://www.w3.org/TR/2001/REC-SVG-20010904/DTD/svg10.dtd">
<svg version="1.0" xmlns="http://www.w3.org/2000/svg"
 width="896.000000pt" height="896.000000pt" viewBox="0 0 896.000000 896.000000"
 preserveAspectRatio="xMidYMid meet">
<metadata>
Created by potrace 1.14, written by Peter Selinger 2001-2017
</metadata>
<g transform="translate(0.000000,896.000000) scale(0.100000,-0.100000)"
fill="#000000" stroke="none">
<path d="M2769 7996 c-2 -2 -35 -7 -74 -10 -38 -3 -79 -8 -90 -10 -11 -2 -42
-7 -70 -10 -27 -4 -85 -14 -127 -22 -43 -9 -85 -17 -95 -19 -10 -2 -18 -4 -18
-5 0 -1 -11 -3 -23 -6 -82 -15 -322 -94 -452 -149 -161 -68 -384 -190 -532
-290 -52 -36 -63 -43 -144 -108 -23 -17 -57 -44 -76 -59 -125 -98 -308 -288
-457 -474 -44 -55 -151 -214 -151 -224 0 -4 -4 -10 -8 -12 -12 -4 -140 -236
-179 -323 -67 -150 -73 -164 -73 -177 0 -8 -4 -18 -9 -23 -16 -18 -103 -302
-117 -385 -3 -14 -7 -33 -10 -42 -3 -10 -7 -30 -10 -45 -2 -16 -9 -50 -14 -78
-27 -150 -34 -261 -35 -570 l0 -290 3050 1 c2582 1 3230 4 3230 14 0 1 15 3
34 5 74 8 187 25 251 39 55 12 95 19 95 16 0 -2 9 2 21 8 11 6 32 13 45 15 40
8 196 55 215 65 11 6 23 10 27 10 10 0 91 29 132 47 219 98 228 102 345 168
336 190 617 431 878 752 177 218 377 583 462 840 12 39 26 79 31 90 15 36 70
247 84 325 3 14 7 36 10 50 3 14 7 41 9 60 10 77 17 126 22 155 3 17 8 175 11
353 l5 322 -3094 0 c-1703 0 -3097 -2 -3099 -4z"/>
<path d="M1776 3923 c-1 -1 -39 -5 -84 -8 -45 -3 -92 -8 -105 -11 -12 -3 -40
-7 -62 -10 -22 -3 -47 -7 -55 -11 -8 -3 -22 -7 -30 -8 -16 -3 -21 -5 -112 -29
-72 -20 -230 -82 -285 -113 -24 -13 -43 -20 -43 -16 0 4 -4 3 -8 -3 -4 -6 -35
-26 -69 -44 -35 -19 -63 -37 -63 -42 0 -4 -6 -8 -13 -8 -7 0 -23 -9 -35 -20
-12 -11 -24 -20 -28 -20 -14 0 -153 -118 -240 -205 -96 -95 -204 -224 -204
-244 0 -6 -4 -11 -8 -11 -19 0 -175 -286 -207 -380 -5 -15 -18 -48 -27 -70 -6
-14 -12 -34 -13 -45 -2 -11 -10 -40 -18 -65 -9 -25 -19 -63 -23 -85 -5 -22 -9
-42 -9 -45 -4 -20 -17 -92 -22 -125 -3 -22 -8 -334 -10 -693 l-4 -653 1208 4
c664 2 1226 7 1248 10 38 7 158 34 180 40 100 29 195 63 195 69 0 4 6 8 13 8
15 0 140 64 178 91 15 10 30 19 34 19 4 0 20 10 35 22 15 13 40 32 56 43 84
60 231 205 282 280 15 22 30 42 35 43 4 2 7 10 7 17 0 7 4 15 9 17 7 3 91 135
91 144 0 2 13 31 29 64 29 59 77 194 86 239 2 12 7 31 10 41 31 97 47 359 31
490 -17 135 -80 373 -107 406 -5 6 -6 14 -2 17 3 4 1 7 -5 7 -7 0 -12 7 -12
16 0 15 -42 96 -62 122 -6 6 -8 12 -4 12 6 0 -91 144 -129 190 -35 44 -199
204 -234 230 -19 14 -39 30 -45 35 -44 42 -226 142 -336 185 -70 28 -170 59
-170 54 0 -3 -8 0 -18 5 -10 5 -36 12 -58 15 -21 4 -62 10 -91 14 -29 5 -62 8
-73 7 -11 -1 -20 1 -20 4 0 5 -579 9 -584 4z"/>
<path d="M6976 3923 c-2 -2 -32 -5 -67 -8 -35 -3 -86 -10 -114 -15 -27 -5 -66
-12 -85 -15 -19 -3 -43 -8 -52 -11 -9 -3 -25 -7 -35 -9 -10 -2 -56 -16 -103
-31 -47 -15 -87 -28 -90 -29 -31 -8 -252 -115 -295 -143 -181 -116 -275 -191
-394 -316 -78 -82 -82 -87 -115 -131 -17 -22 -36 -44 -43 -48 -7 -4 -13 -12
-13 -16 0 -5 -22 -42 -50 -84 -27 -41 -70 -117 -95 -169 -25 -51 -51 -101 -56
-112 -6 -10 -12 -26 -14 -35 -3 -9 -18 -55 -35 -104 -16 -48 -32 -101 -35
-119 -3 -17 -8 -34 -10 -38 -2 -4 -7 -22 -10 -41 -3 -19 -10 -59 -15 -89 -20
-115 -23 -222 -24 -803 l-1 -597 1185 0 c652 1 1205 5 1230 10 25 4 64 11 87
14 38 5 148 30 181 41 7 3 13 4 15 4 5 -1 114 43 165 66 29 14 57 25 62 25 6
0 10 5 10 11 0 5 4 8 9 5 5 -3 14 1 21 9 7 8 18 15 26 15 7 0 19 6 26 13 17
16 107 77 113 77 5 0 33 23 114 95 96 85 261 282 261 313 0 6 4 12 8 12 15 0
133 248 148 310 2 8 10 40 19 70 9 30 18 66 21 80 2 14 7 39 11 55 20 87 24
367 7 471 -15 92 -31 169 -34 169 -1 0 -3 7 -5 15 -15 72 -104 278 -160 368
-82 135 -213 284 -334 382 -221 179 -534 307 -792 325 -35 2 -64 5 -64 6 0 2
-577 4 -579 2z"/>
</g>
</svg>
